HIERARCHY
ROOT root
{
	OFFSET	0	13.1	24.9
	CHANNELS 6  Xposition Yposition Zposition Xrotation Yrotation Zrotation
	JOINT spine_1
	{
		OFFSET	0	9.99999	0
		CHANNELS 3  Xrotation Yrotation Zrotation
		JOINT spine_2
		{
			OFFSET	0	112	-10
			CHANNELS 3  Xrotation Yrotation Zrotation
			JOINT spine_3
			{
				OFFSET	0	206.5	19.3
				CHANNELS 3  Xrotation Yrotation Zrotation
				JOINT spine_4
				{
					OFFSET	0	110.4	14.6
					CHANNELS 3  Xrotation Yrotation Zrotation
					JOINT neck_1
					{
						OFFSET	0	71.8	-50.3
						CHANNELS 3  Xrotation Yrotation Zrotation
						JOINT neck_2
						{
							OFFSET	0	86.2	-25.8
							CHANNELS 3  Xrotation Yrotation Zrotation
							JOINT head_ee
							{
								OFFSET	0	179.8	-8.7
								CHANNELS 3  Xrotation Yrotation Zrotation
								End Site
								{
									OFFSET	1	0	0
								}
							}
						}
					}
					JOINT left_clavicle
					{
						OFFSET	-43.2	22.4	-70.8
						CHANNELS 3  Xrotation Yrotation Zrotation
						JOINT left_shoulder
						{
							OFFSET	-93.9	-5.79999	48.7
							CHANNELS 3  Xrotation Yrotation Zrotation
							JOINT left_elbow
							{
								OFFSET	-291.4	-30.8	15.2
								CHANNELS 3  Xrotation Yrotation Zrotation
								JOINT left_lowarm_twist
								{
									OFFSET	-110.7	-3.89999	13.6
									CHANNELS 3  Xrotation Yrotation Zrotation
									JOINT left_hand
									{
										OFFSET	-110.7	-3.89999	13.6
										CHANNELS 3  Xrotation Yrotation Zrotation
										JOINT left_ee
										{
											OFFSET	-80.8	-5.10001	12.1
											CHANNELS 3  Xrotation Yrotation Zrotation
											End Site
											{
												OFFSET	1	0	0
											}
										}
									}
								}
							}
						}
					}
					JOINT right_clavicle
					{
						OFFSET	43.2	22.4	-70.8
						CHANNELS 3  Xrotation Yrotation Zrotation
						JOINT right_shoulder
						{
							OFFSET	93.9	-5.79999	48.7
							CHANNELS 3  Xrotation Yrotation Zrotation
							JOINT right_elbow
							{
								OFFSET	291.4	-30.8	15.2
								CHANNELS 3  Xrotation Yrotation Zrotation
								JOINT right_lowarm_twist
								{
									OFFSET	110.7	-3.89999	13.6
									CHANNELS 3  Xrotation Yrotation Zrotation
									JOINT right_hand
									{
										OFFSET	110.7	-3.89999	13.6
										CHANNELS 3  Xrotation Yrotation Zrotation
										JOINT right_ee
										{
											OFFSET	80.8	-5.10001	12.1
											CHANNELS 3  Xrotation Yrotation Zrotation
											End Site
											{
												OFFSET	1	0	0
											}
										}
									}
								}
							}
						}
					}
				}
			}
		}
	}
	JOINT left_hip
	{
		OFFSET	-82.8	-127.5	0.300001
		CHANNELS 3  Xrotation Yrotation Zrotation
		JOINT left_knee
		{
			OFFSET	-28.2	-396.7	2.2
			CHANNELS 3  Xrotation Yrotation Zrotation
			JOINT left_ankle
			{
				OFFSET	-11.7	-411.3	35.4
				CHANNELS 3  Xrotation Yrotation Zrotation
				JOINT left_toes
				{
					OFFSET	0	-60	-88.6
					CHANNELS 3  Xrotation Yrotation Zrotation
					JOINT left_foot_ee
					{
						OFFSET	-22.5	-16.5	-42.2
						CHANNELS 3  Xrotation Yrotation Zrotation
						End Site
						{
							OFFSET	1	0	0
						}
					}
				}
			}
		}
	}
	JOINT right_hip
	{
		OFFSET	82.8	-127.5	0.300001
		CHANNELS 3  Xrotation Yrotation Zrotation
		JOINT right_knee
		{
			OFFSET	28.2	-396.7	2.2
			CHANNELS 3  Xrotation Yrotation Zrotation
			JOINT right_ankle
			{
				OFFSET	11.7	-411.3	35.4
				CHANNELS 3  Xrotation Yrotation Zrotation
				JOINT right_toes
				{
					OFFSET	0	-60	-88.6
					CHANNELS 3  Xrotation Yrotation Zrotation
					JOINT right_foot_ee
					{
						OFFSET	22.5	-16.5	-42.2
						CHANNELS 3  Xrotation Yrotation Zrotation
						End Site
						{
							OFFSET	1	0	0
						}
					}
				}
			}
		}
	}
}
MOTION
Frames: 5
Frame Time: 0.02
3177.02 653.055 -1669.29 -10.1184240979 46.6291391482 7.11704109988 1.59257 0.604087 3.75529 1.60034 0.36408 3.78606 1.62512 -0.332687 3.78894 1.60519 0.269438 3.79396 -9.31653 18.6817 -4.44804 -9.67513 38.113 0.36916 -0.0 0.0 -0.0 0.531648 15.4633 2.66295 -44.2431 -31.2371 61.6828 0.923973 -24.5936 0.201409 -24.1724 -1.44578 2.70856 -0.0550192 8.81267 3.30442 -0.0 0.0 -0.0 13.4369 26.4835 -26.6304 3.02305 27.505 -61.9423 2.64278 52.6165 -1.30679 -25.2177 1.53311 -2.81013 -4.40097 6.6288 34.5482 0.0 0.0 0.0 27.1307 -1.80304 -13.0891 3.59281 -0.164538 -0.526622 -23.8678 7.79594 3.59047 -1.12228 0.0 0.0 -0.0 0.0 -0.0 -4.11511 2.57834 9.29621 -18.1615 -0.31299 -2.75781 26.6342 24.14 4.08465 -25.8776 0.0 0.0 0.0 0.0 0.0 
3143.41014262 656.618 -1677.13205882 -8.6958103747 45.8425144313 6.89202813754 1.52507 0.600928 3.77691 1.53293 0.359554 3.80743 1.5577 -0.34554 3.80873 1.53755 0.259863 3.81552 -8.67674 18.6858 -4.74258 -8.90213 38.2735 -0.182721 -0.0 0.0 -0.0 0.524685 15.342 2.63962 -43.6123 -31.405 61.6263 0.899886 -24.0259 0.191493 -24.2652 -1.45346 2.71764 -0.0379789 8.35259 3.2261 -0.0 0.0 -0.0 13.2754 27.2775 -26.1562 1.81448 27.3081 -62.5936 2.5796 51.946 -1.25681 -24.9812 1.51319 -2.78729 -4.2092 6.69333 33.0277 0.0 0.0 0.0 26.7734 -1.22575 -13.3594 -1.21479 0.0481099 0.180214 -23.8441 8.06684 3.58669 -1.00177 0.0 0.0 -0.0 0.0 -0.0 -4.84159 3.16743 10.1645 -20.0015 -0.295622 -3.03959 27.1158 23.5569 4.12105 -25.4223 0.0 0.0 0.0 0.0 0.0 
3143.40090212 656.618 -1677.09234948 -8.70636762575 45.9094199023 6.90673522069 1.52507 0.600928 3.77691 1.53293 0.359554 3.80743 1.5577 -0.34554 3.80873 1.53755 0.259863 3.81552 -8.67674 18.6858 -4.74258 -8.90213 38.2735 -0.182721 -0.0 0.0 -0.0 0.524685 15.342 2.63962 -43.6123 -31.405 61.6263 0.899886 -24.0259 0.191493 -24.2652 -1.45346 2.71764 -0.0379789 8.35259 3.2261 -0.0 0.0 -0.0 13.2754 27.2775 -26.1562 1.81448 27.3081 -62.5936 2.5796 51.946 -1.25681 -24.9812 1.51319 -2.78729 -4.2092 6.69333 33.0277 0.0 0.0 0.0 26.7734 -1.22575 -13.3594 -1.21479 0.0481099 0.180214 -23.8441 8.06684 3.58669 -1.00177 0.0 0.0 -0.0 0.0 -0.0 -4.84159 3.16743 10.1645 -20.0015 -0.295622 -3.03959 27.1158 23.5569 4.12105 -25.4223 0.0 0.0 0.0 0.0 0.0 
3143.38347737 656.618 -1677.01688457 -8.7265263123 46.0365135458 6.93477185275 1.52507 0.600928 3.77691 1.53293 0.359554 3.80743 1.5577 -0.34554 3.80873 1.53755 0.259863 3.81552 -8.67674 18.6858 -4.74258 -8.90213 38.2735 -0.182721 -0.0 0.0 -0.0 0.524685 15.342 2.63962 -43.6123 -31.405 61.6263 0.899886 -24.0259 0.191493 -24.2652 -1.45346 2.71764 -0.0379789 8.35259 3.2261 -0.0 0.0 -0.0 13.2754 27.2775 -26.1562 1.81448 27.3081 -62.5936 2.5796 51.946 -1.25681 -24.9812 1.51319 -2.78729 -4.2092 6.69333 33.0277 0.0 0.0 0.0 26.7734 -1.22575 -13.3594 -1.21479 0.0481099 0.180214 -23.8441 8.06684 3.58669 -1.00177 0.0 0.0 -0.0 0.0 -0.0 -4.84159 3.16743 10.1645 -20.0015 -0.295622 -3.03959 27.1158 23.5569 4.12105 -25.4223 0.0 0.0 0.0 0.0 0.0 
3086.31847788 665.026 -1675.53441226 -8.16458154849 44.8464676612 6.57411272542 1.76105 0.421578 3.75876 1.76889 0.181719 3.77793 1.78103 -0.500674 3.74905 1.76144 0.0972637 3.78104 -5.33741 18.6041 -5.47383 -4.87009 38.3431 -2.30559 -0.0 0.0 -0.0 0.925915 14.6595 3.21633 -40.8786 -31.5236 61.0175 0.697965 -19.0729 0.117257 -24.8426 -1.50156 2.77386 -0.183512 7.73806 2.02943 -0.0 0.0 -0.0 12.7811 27.9853 -24.9264 -3.0956 26.5555 -64.1054 2.32508 49.0277 -1.06039 -24.4205 1.46633 -2.7328 -3.8492 6.61706 30.142 0.0 0.0 0.0 26.1366 0.49223 -12.6806 -8.60739 0.257545 1.29463 -20.6175 9.55902 3.10043 -0.0123247 0.0 0.0 -0.0 0.0 -0.0 -5.59599 4.57561 11.1139 -23.7462 -0.232383 -3.61063 28.1989 18.2413 4.05785 -25.7543 0.0 0.0 0.0 0.0 0.0 
